# xmcd
#
# Track frame offsets:
#	150
#	5821
#	14616
#	19196
#	29406
#	35641
#	40779
#	48597
#	57650
#	62330
#	74605
#	81710
#	93176
#	100860
#	105269
#	112004
#	125167
#	132327
#	139481
#	147808
#	159849
#	173036
#	182794
#	191125
#	195442
#
# Disc length: 2798 seconds
#
# Revision: 0
# Processed by: cddbd v1.5.1PL0 Copyright (c) Steve Scherf et al.
# Submitted via: dBpowerAMP V4.0
#
DISCID=6f0aec19
DTITLE=jihye - jihye
DYEAR=2005
DGENRE=Pop
TTITLE0=ÁöÇý1
TTITLE1=ÁöÇý2
TTITLE2=ÁöÇý3
TTITLE3=4
TTITLE4=5
TTITLE5=6
TTITLE6=7
TTITLE7=8
TTITLE8=9
TTITLE9=10
TTITLE10=11
TTITLE11=12
TTITLE12=13
TTITLE13=14
TTITLE14=15
TTITLE15=16
TTITLE16=17
TTITLE17=18
TTITLE18=19
TTITLE19=20
TTITLE20=21
TTITLE21=22
TTITLE22=23
TTITLE23=24
TTITLE24=25
EXTD=jihye 1111
EXTT0=
EXTT1=
EXTT2=
EXTT3=
EXTT4=
EXTT5=
EXTT6=
EXTT7=
EXTT8=
EXTT9=
EXTT10=
EXTT11=
EXTT12=
EXTT13=
EXTT14=
EXTT15=
EXTT16=
EXTT17=
EXTT18=
EXTT19=
EXTT20=
EXTT21=
EXTT22=
EXTT23=
EXTT24=
PLAYORDER=
